# xmcd CD database file
#
# Track frame offsets:
#	150
#	19038
#	32082
#	41181
#	54533
#	62232
#	69148
#	85706
#
# Disc length: 1505 seconds
#
# Revision: 0
# Processed by: cddbd v1.5.1PL2 Copyright (c) Steve Scherf et al.
# Submitted via: CDex 1.60beta1
#
DISCID=6205df08
DTITLE=BLOOD - CROSS OF GLORY (DISC1)
DYEAR=2005
DGENRE=Rock
TTITLE0=IN THIS
TTITLE1=STREET CAT
TTITLE2=SCAMP IT!!!!!
TTITLE3=MY HEART
TTITLE4=GAIN
TTITLE5=PINKY
TTITLE6=YOUR EYES
TTITLE7=ANOTHER
EXTD=YEAR: 2005
EXTT0=
EXTT1=
EXTT2=
EXTT3=
EXTT4=
EXTT5=
EXTT6=
EXTT7=
PLAYORDER=
